<?xml version="1.0" encoding="utf-8"?>
<!-- Generator: Adobe Illustrator 25.4.1, SVG Export Plug-In . SVG Version: 6.00 Build 0)  -->
<svg version="1.1" id="Layer_1" xmlns="http://www.w3.org/2000/svg" xmlns:xlink="http://www.w3.org/1999/xlink" x="0px" y="0px"
	 viewBox="0 0 1023 200" style="enable-background:new 0 0 1023 200;" xml:space="preserve">
<g>
	<g style="opacity:7.000000e-02;">
		<defs>
			<rect id="SVGID_1_" x="-1846.8" y="-657.5" style="opacity:7.000000e-02;" width="1533.7" height="1145"/>
		</defs>
		<clipPath id="SVGID_00000032645998272821194710000010394455387005881278_">
			<use xlink:href="#SVGID_1_"  style="overflow:visible;"/>
		</clipPath>
		<g style="clip-path:url(#SVGID_00000032645998272821194710000010394455387005881278_);">
			<g>
				<g style="opacity:0.3;">
					<rect x="-681.6" y="19.1" style="fill:#FFFFFF;" width="1299.8" height="1.9"/>
				</g>
				<g style="opacity:0.3;">
					<rect x="-681.6" y="56.7" style="fill:#FFFFFF;" width="1299.8" height="1.9"/>
				</g>
				<g style="opacity:0.3;">
					<rect x="-681.6" y="94.2" style="fill:#FFFFFF;" width="1299.8" height="1.9"/>
				</g>
				<g style="opacity:0.3;">
					<rect x="-681.6" y="131.8" style="fill:#FFFFFF;" width="1299.8" height="1.9"/>
				</g>
				<g style="opacity:0.3;">
					<rect x="-681.6" y="169.4" style="fill:#FFFFFF;" width="1299.8" height="1.9"/>
				</g>
				<g style="opacity:0.3;">
					<rect x="4.9" y="-780.3" style="fill:#FFFFFF;" width="1.9" height="1299.8"/>
				</g>
				<g style="opacity:0.3;">
					<rect x="42.5" y="-780.3" style="fill:#FFFFFF;" width="1.9" height="1299.8"/>
				</g>
				<g style="opacity:0.3;">
					<rect x="80.1" y="-780.3" style="fill:#FFFFFF;" width="1.9" height="1299.8"/>
				</g>
				<g style="opacity:0.3;">
					<rect x="117.7" y="-780.3" style="fill:#FFFFFF;" width="1.9" height="1299.8"/>
				</g>
				<g style="opacity:0.3;">
					<rect x="155.3" y="-780.3" style="fill:#FFFFFF;" width="1.9" height="1299.8"/>
				</g>
				<g style="opacity:0.3;">
					<rect x="192.9" y="-780.3" style="fill:#FFFFFF;" width="1.9" height="1299.8"/>
				</g>
				<g style="opacity:0.3;">
					<rect x="230.5" y="-780.3" style="fill:#FFFFFF;" width="1.9" height="1299.8"/>
				</g>
				<g style="opacity:0.3;">
					<rect x="268.1" y="-780.3" style="fill:#FFFFFF;" width="1.9" height="1299.8"/>
				</g>
				<g style="opacity:0.3;">
					<rect x="305.7" y="-780.3" style="fill:#FFFFFF;" width="1.9" height="1299.8"/>
				</g>
				<g style="opacity:0.3;">
					<rect x="343.3" y="-780.3" style="fill:#FFFFFF;" width="1.9" height="1299.8"/>
				</g>
				<g style="opacity:0.3;">
					<rect x="380.9" y="-780.3" style="fill:#FFFFFF;" width="1.9" height="1299.8"/>
				</g>
				<g style="opacity:0.3;">
					<rect x="418.5" y="-780.3" style="fill:#FFFFFF;" width="1.9" height="1299.8"/>
				</g>
				<g style="opacity:0.3;">
					<rect x="456.1" y="-780.3" style="fill:#FFFFFF;" width="1.9" height="1299.8"/>
				</g>
				<g style="opacity:0.3;">
					<rect x="493.6" y="-780.3" style="fill:#FFFFFF;" width="1.9" height="1299.8"/>
				</g>
				<g style="opacity:0.3;">
					<rect x="531.2" y="-780.3" style="fill:#FFFFFF;" width="1.9" height="1299.8"/>
				</g>
				<g style="opacity:0.3;">
					<rect x="568.8" y="-780.3" style="fill:#FFFFFF;" width="1.9" height="1299.8"/>
				</g>
			</g>
		</g>
	</g>
</g>
<g>
	<path style="fill:#FFFFFF;" d="M94.5,80.7V40.6H82.6v-17h30.4l12.4,17.1L138,23.6h18.6v57.1H138V64.4L126,80.7h-1l-12-16.3
		l0.1,16.3H94.5z"/>
	<path style="fill:#FFFFFF;" d="M155,80.7l18.8-57.1h28.3l19.1,57.1h-21.6L196,70.4h-17l-3.6,10.3H155z M188,36.3l-8.2,22.6h15.7
		L188,36.3z"/>
	<path style="fill:#FFFFFF;" d="M281.3,23.6l-24.9,36.1v21h-18.7v-21l-24.9-36.1h22.5L247,41.3l11.8-17.6H281.3z"/>
	<path style="fill:#FFFFFF;" d="M362.3,23.6v17h-18.1v40.1h-18.6V40.6h-18.1v-17H362.3z"/>
	<path style="fill:#FFFFFF;" d="M391.1,43.3V23.6h18.6v57.1h-18.6V60.1h-14.9v20.6h-18.6V23.6h18.6v19.7H391.1z"/>
	<path style="fill:#FFFFFF;" d="M413.7,80.7V23.6h48.9v17h-30.4v3.7H445v11.1h-12.7v8.3h35.2v17H413.7z"/>
	<path style="fill:#FFFFFF;" d="M543.4,63.7h17.9v17H536c-6.2,0-11.8-1.1-16.8-3.3c-5-2.2-9-5.5-11.8-9.9c-2.9-4.4-4.3-9.8-4.3-16.2
		c0-4.5,0.9-8.5,2.6-12c1.7-3.5,4.1-6.4,7.2-8.8c3.1-2.3,6.6-4.1,10.5-5.2c4-1.1,8.2-1.7,12.7-1.7h15.7h9.6v17h-17.9
		c-4,0-7,0.1-8.9,0.4s-3.6,0.6-5.1,1.2c-1.5,0.6-2.8,1.5-4,2.9c-1.2,1.4-1.8,3.8-2,7.3c0.1,3.4,0.8,5.8,2,7.2
		c1.2,1.4,2.7,2.4,4.4,2.9c1.7,0.5,3.5,0.8,5.4,1C537,63.6,539.8,63.7,543.4,63.7z"/>
	<path style="fill:#FFFFFF;" d="M563.6,80.7V23.6h37.2c4.6,0.4,8.4,1.7,11.3,3.9c3,2.2,5.1,5.1,6.5,8.8c1.1,5.5,1.1,9.8,0.2,12.8
		c-0.9,3-2.6,5.5-5,7.5c-2.4,2-3.8,3.1-4.4,3.4c-0.6,0.3-1,0.7-1.3,1.3c0.2,1,1.8,1.8,5.1,2.4h11.8v17h-13.7
		c-8.2,0.2-14.7-2.4-19.5-7.6l-7.4-7.8v15.4H563.6z M584.3,39.1v9.6h13.4c3.8-1.3,5.8-2.9,5.9-4.9c-0.3-2.1-2.3-3.7-6.1-4.7H584.3z"
		/>
	<path style="fill:#FFFFFF;" d="M624.9,80.7V23.6h48.9v17h-30.4v3.7h12.7v11.1h-12.7v8.3h35.2v17H624.9z"/>
	<path style="fill:#FFFFFF;" d="M673.1,80.7l18.8-57.1h28.3l19.1,57.1h-21.6l-3.6-10.3h-17l-3.6,10.3H673.1z M706.1,36.3L698,58.9
		h15.7L706.1,36.3z"/>
	<path style="fill:#FFFFFF;" d="M790.6,23.6v17h-18.1v40.1h-18.6V40.6h-18.1v-17H790.6z"/>
	<path style="fill:#FFFFFF;" d="M791.8,23.6h18.6v57.1h-18.6V23.6z"/>
	<path style="fill:#FFFFFF;" d="M830.5,23.6l13,43.8l13.1-43.8h22.9l-20.4,57.1h-30.3l-20.1-57.1H830.5z"/>
	<path style="fill:#FFFFFF;" d="M878.7,80.7V23.6h48.9v17h-30.4v3.7H910v11.1h-12.7v8.3h35.2v17H878.7z"/>
	<path style="fill:#FFFFFF;" d="M37.8,160.3v-57.1h48.9v17H56.3v3.7h12.7V135H56.3v25.3H37.8z"/>
	<path style="fill:#FFFFFF;" d="M153.8,132.1c0,6.2-1.3,11.6-3.9,16c-2.6,4.4-6.4,7.7-11.3,9.9s-10.8,3.3-17.7,3.3
		s-12.7-1.1-17.6-3.3s-8.6-5.5-11.2-9.9c-2.5-4.4-3.8-9.7-3.8-16c0-4.8,0.7-9,2.2-12.6c1.4-3.6,3.6-6.7,6.4-9.2
		c2.8-2.5,6.2-4.4,10.3-5.6c4.1-1.3,8.7-1.9,13.8-1.9c6.8,0,12.7,1.1,17.7,3.4c5,2.3,8.7,5.6,11.3,10
		C152.5,120.5,153.8,125.9,153.8,132.1z M108.6,132.3c0,3.7,0.8,6.9,2.5,9.6c1.6,2.7,4.9,4.1,9.7,4.1c3.7,0,6.5-0.7,8.4-2.1
		s3-3,3.5-4.9c0.5-1.8,0.8-4,0.9-6.6c-0.2-3.7-1-6.9-2.6-9.6c-1.6-2.7-5-4.1-10.2-4.1C112.6,118.6,108.6,123.1,108.6,132.3z"/>
	<path style="fill:#FFFFFF;" d="M156.6,160.3v-57.1h37.2c4.6,0.4,8.4,1.7,11.3,3.9s5.1,5.1,6.5,8.8c1.1,5.5,1.1,9.8,0.2,12.8
		c-0.9,3-2.6,5.5-5,7.5c-2.4,2-3.8,3.1-4.4,3.4c-0.6,0.3-1,0.7-1.3,1.3c0.2,1,1.8,1.8,5.1,2.4h11.8v17h-13.7
		c-8.2,0.2-14.7-2.4-19.5-7.6l-7.4-7.8v15.4H156.6z M177.2,118.7v9.6h13.4c3.8-1.3,5.8-2.9,5.9-4.9c-0.3-2.1-2.3-3.7-6.1-4.7H177.2z
		"/>
	<path style="fill:#FFFFFF;" d="M256.2,143.3h17.9v17h-25.3c-6.2,0-11.8-1.1-16.8-3.3c-5-2.2-9-5.5-11.8-9.9
		c-2.9-4.4-4.3-9.8-4.3-16.2c0-4.5,0.9-8.5,2.6-12c1.7-3.5,4.1-6.4,7.2-8.8c3.1-2.3,6.6-4.1,10.5-5.2c4-1.1,8.2-1.7,12.7-1.7h15.7
		h9.6v17h-17.9c-4,0-7,0.1-8.9,0.4c-1.9,0.2-3.6,0.6-5.1,1.2c-1.5,0.6-2.8,1.5-4,2.9c-1.2,1.4-1.8,3.8-2,7.3c0.1,3.4,0.8,5.8,2,7.2
		s2.7,2.4,4.4,2.9c1.7,0.5,3.5,0.8,5.4,1C249.9,143.2,252.6,143.3,256.2,143.3z"/>
	<path style="fill:#FFFFFF;" d="M276.5,160.3v-57.1h48.9v17h-30.4v3.7h12.7V135h-12.7v8.3h35.2v17H276.5z"/>
	<path style="fill:#FFFFFF;" d="M375.1,120.2h-13.9c-6.8-0.2-7.8,1.7-3,5.6c8.5,7.5,12.7,14.8,12.6,21.8
		c-0.2,7.1-4.3,11.3-12.6,12.6h-30.4v-17h12c7.5,0.2,8.4-1.9,2.8-6.2c-9.2-8.4-13.1-16.2-11.7-23.2s5.7-10.6,13-10.6h31.1V120.2z"/>
	<path style="fill:#FFFFFF;" d="M412.7,160.3v-57.1h38.9c6.2,0.1,11,1.1,14.2,3.2c3.3,2.1,5.2,5.6,5.9,10.6c0.2,3.8-0.6,6.8-2.4,8.9
		s-4.9,3.9-9.1,5.3v0.2c2.1,0.3,4,0.8,5.8,1.7c1.8,0.9,3.2,1.9,4.4,3c1.2,1.2,2.1,2.5,2.8,4c0.7,1.5,1,2.9,1,4.3
		c0,4.5-1.2,7.9-3.5,10.2c-2.3,2.3-5.3,3.8-8.9,4.5s-8,1-13.2,1H412.7z M432.3,117.1v8.7h13.8c0.8,0,1.6-0.4,2.4-1.2
		s1.3-1.9,1.3-3.2c-0.1-1.6-0.6-2.6-1.5-3.3c-0.9-0.6-1.7-0.9-2.3-0.9H432.3z M432.3,138.2v10.6H445c2.2,0.1,4.1-0.4,5.7-1.4
		c1.6-1,2.5-2.3,2.5-3.8c0.2-1.7-0.5-3-2-3.9c-1.5-0.9-3.6-1.4-6.2-1.4H432.3z"/>
	<path style="fill:#FFFFFF;" d="M477,160.3v-57.1h48.9v17h-30.4v3.7h12.7V135h-12.7v8.3h35.2v17H477z"/>
	<path style="fill:#FFFFFF;" d="M591.2,160.3h-16.4l-14.1-57.1h18.4l5.3,24.7l16.3-20.2l15.5,20.2l7.8-24.7h17.8l-16.6,57.1h-14.7
		l-10-14.1L591.2,160.3z"/>
	<path style="fill:#FFFFFF;" d="M638.7,103.2h18.6v57.1h-18.6V103.2z"/>
	<path style="fill:#FFFFFF;" d="M713.2,103.2v17h-18.1v40.1h-18.6v-40.1h-18.1v-17H713.2z"/>
	<path style="fill:#FFFFFF;" d="M747.9,122.9v-19.7h18.6v57.1h-18.6v-20.6H733v20.6h-18.6v-57.1H733v19.7H747.9z"/>
	<path style="fill:#FFFFFF;" d="M869,103.2l-24.9,36.1v21h-18.7v-21l-24.9-36.1H823l11.6,17.6l11.8-17.6H869z"/>
	<path style="fill:#FFFFFF;" d="M929.8,132.1c0,6.2-1.3,11.6-3.9,16c-2.6,4.4-6.4,7.7-11.3,9.9s-10.8,3.3-17.7,3.3
		s-12.7-1.1-17.7-3.3c-4.9-2.2-8.6-5.5-11.2-9.9c-2.5-4.4-3.8-9.7-3.8-16c0-4.8,0.7-9,2.2-12.6c1.4-3.6,3.6-6.7,6.4-9.2
		c2.8-2.5,6.2-4.4,10.3-5.6c4.1-1.3,8.7-1.9,13.8-1.9c6.8,0,12.7,1.1,17.7,3.4c5,2.3,8.7,5.6,11.3,10
		C928.5,120.5,929.8,125.9,929.8,132.1z M884.5,132.3c0,3.7,0.8,6.9,2.5,9.6c1.6,2.7,4.9,4.1,9.7,4.1c3.7,0,6.5-0.7,8.4-2.1
		s3-3,3.5-4.9c0.5-1.8,0.8-4,0.9-6.6c-0.2-3.7-1-6.9-2.6-9.6s-5-4.1-10.2-4.1C888.6,118.6,884.5,123.1,884.5,132.3z"/>
	<path style="fill:#FFFFFF;" d="M949.1,103.2V133c-0.1,4,0.6,6.7,2.2,8.1c1.6,1.4,4.1,2.1,7.6,2c2.8,0.1,5.2-0.6,7-2.1
		c1.8-1.5,2.7-4.2,2.6-8l0.1-29.7h18.6v33.5c-0.1,4.7-0.9,8.5-2.4,11.4c-1.5,2.8-3.4,5.2-5.7,7.1c-2.3,1.9-5.1,3.4-8.6,4.4
		s-7.3,1.6-11.5,1.7c-3.5-0.1-7.1-0.6-10.7-1.4s-6.8-2.3-9.5-4.2c-2.7-1.9-4.8-4.3-6.2-7.3c-1.5-3-2.2-6.9-2.2-11.7v-33.5H949.1z"/>
</g>
</svg>
