<?xml version="1.0" encoding="UTF-8"?><svg id="Layer_1" xmlns="http://www.w3.org/2000/svg" viewBox="0 0 500 500"><path d="M455.48,358.29c-3.01,6.91-8.37,8.96-15.71,8.95-126.49-.14-252.98-.1-379.46-.1-1.47,0-2.95.05-4.41-.05-6.24-.42-11-5.18-11.24-11.45-.17-4.41-.17-8.83,0-13.23.25-6.46,5.17-11.22,11.66-11.4,3.99-.11,7.98-.02,12.58-.02,0-1.96,0-3.63,0-5.3,0-57.76,0-115.52,0-173.29,0-10.13,4.96-17.02,13.73-19.1,1.79-.43,3.7-.5,5.56-.5,107.9-.02,215.81-.03,323.71-.01,12.1,0,19.25,7.29,19.26,19.66.03,57.63.01,115.26.01,172.88,0,1.72,0,3.43,0,5.49,9.1.78,19.68-2.72,24.29,9.02v18.46ZM212.54,145.6c-1.69,0-3,0-4.3,0-39.58,0-79.16,0-118.74,0-6.51,0-7.76,1.22-7.76,7.67,0,57.77,0,115.53,0,173.3,0,1.41.12,2.81.19,4.4,2.09,0,3.68,0,5.28,0,42.66,0,85.31,0,127.97-.01,3.63,0,7.26-.35,9.66,3.38.39.61,1.93.67,2.93.67,14.84.04,29.69.05,44.53-.01,1.09,0,2.67-.25,3.19-.98,2.12-2.96,5.03-3.07,8.2-3.07,43.19.03,86.38.02,129.57.02,1.56,0,3.11,0,4.88,0,.08-1.78.19-3.09.19-4.4,0-57.77.01-115.53,0-173.3,0-6.44-1.26-7.67-7.77-7.67-39.58,0-79.16,0-118.74,0-1.3,0-2.6,0-4.3,0,0,2.67.13,4.92-.03,7.15-.31,4.31-2.64,6.58-6.99,6.59-20.32.05-40.65.05-60.97,0-4.35-.01-6.68-2.27-6.98-6.6-.15-2.23-.03-4.48-.03-7.15ZM57.63,354.01h384.68v-10.19c-1.93,0-3.53,0-5.13,0-48.28,0-96.56,0-144.85-.02-2.8,0-5.36-.09-7.45,2.54-.86,1.09-3.12,1.47-4.75,1.48-20.06.1-40.12.1-60.18-.01-1.73,0-4.09-.55-5.05-1.73-1.83-2.25-3.91-2.28-6.34-2.28-48.82.02-97.63.02-146.45.02h-4.47v10.19Z" fill="#fcfcfc" stroke-width="0"/></svg>