<?xml version="1.0" encoding="UTF-8"?><svg id="Layer_1" xmlns="http://www.w3.org/2000/svg" viewBox="0 0 500 500"><path d="M163.43,455.53c-5.89-2.37-12.26-3.96-17.56-7.28-10.15-6.36-15.41-16.04-15.57-28.22-.04-2.94-.02-5.88-.02-8.83,0-108.87.37-217.73-.26-326.59-.16-26.95,21.11-40.24,40.26-40.13,53.37.31,106.74.09,160.12.12,17.38.01,31.85,9,37.2,23.5,1.53,4.16,2.3,8.85,2.3,13.3.12,112.48.12,224.95.07,337.43,0,18.04-12.25,32.38-30.1,35.86-1.02.2-2.02.56-3.02.84h-173.4ZM202.77,57.43c-11.43,0-22.37-.05-33.32.01-16.52.1-26.33,10-26.33,26.48,0,105.39,0,210.79,0,316.18,0,6.55,0,13.11.01,19.66.01,8.05,3.8,14,10.34,18.38,5.06,3.39,10.71,4.57,16.75,4.57,30.37-.04,60.73-.02,91.1-.02,23.41,0,46.82.1,70.23-.04,15.57-.09,25.59-10.26,25.59-25.61,0-111.41-.14-222.83.16-334.24.04-16.66-13.31-25.13-24.81-25.33-6.82-.12-13.64-.04-20.47-.05-6.12,0-12.23,0-18.74,0,0,4.68.1,8.93-.03,13.17-.15,4.85-2.39,7.19-7.23,7.2-25.28.07-50.57.07-75.85,0-5.07-.01-7.32-2.38-7.4-7.4-.07-4.13-.01-8.27-.01-12.98Z" fill="#fcfcfc" stroke-width="0"/><path d="M249.71,421.04c-12.95,0-25.91.01-38.86,0-5.45,0-8.25-2.29-8.15-6.55.09-4.06,2.86-6.27,8.08-6.28,26.04-.02,52.08-.02,78.12,0,5.15,0,7.92,2.3,7.95,6.4.02,4.12-2.74,6.42-7.87,6.43-13.09.02-26.17,0-39.26,0Z" fill="#fcfcfc" stroke-width="0"/></svg>