<?xml version="1.0" encoding="UTF-8"?><svg id="Layer_1" xmlns="http://www.w3.org/2000/svg" viewBox="0 0 500 500"><path d="M119.45,475.31c-5.04-1.41-10.34-2.34-15.09-4.3-22.07-9.1-33.74-24.53-34.04-45.88-.39-28.16-.1-56.32-.1-84.49,0-88.15-.02-176.31.01-264.46.01-24.88,17.33-44.61,44.08-50.11,4.67-.96,9.61-1.31,14.42-1.32,80.87-.08,161.73-.09,242.6-.04,33.73.02,58.48,21.56,58.5,51.02.07,116.17.06,232.34,0,348.51-.01,25.81-18.63,45.36-47.49,50.31-.6.1-1.14.5-1.71.75H119.45ZM173.35,38.78c-15.7,0-30.59-.07-45.48.02-23.87.13-41.53,15.54-41.54,36.51-.06,116.45-.06,232.9,0,349.35.01,20.98,17.65,36.51,41.52,36.53,81.53.07,163.06.08,244.59,0,23.59-.02,41.31-15.55,41.32-36.25.08-116.6.07-233.2,0-349.79-.01-20.93-17.76-36.24-41.72-36.35-16.07-.07-32.14-.02-48.21,0-1.28,0-2.56.16-4.26.27,0,4.65.04,9.02,0,13.4-.07,6.24-2.62,8.67-9.57,8.68-42.35.05-84.71.05-127.06,0-6.75,0-9.43-2.42-9.55-8.26-.09-4.52-.02-9.04-.02-14.1Z" fill="#fcfcfc" stroke-width="0"/><path d="M249.37,437.5c-22.1,0-44.19-.03-66.29.03-3.76.01-7.03-.58-9.03-3.64-2.68-4.1.02-9.25,5.44-10.26,1.61-.3,3.33-.21,5-.21,43.36,0,86.71,0,130.07,0,.5,0,1,0,1.51,0,6.2.09,9.91,2.84,9.79,7.24-.12,4.25-3.68,6.82-9.69,6.83-19.92.03-39.84.01-59.76.01-2.34,0-4.69,0-7.03,0Z" fill="#fcfcfc" stroke-width="0"/></svg>