<svg xmlns="http://www.w3.org/2000/svg" viewBox="0 0 159.64 11.13"><g id="Layer_2" data-name="Layer 2"><g id="Layer_1-2" data-name="Layer 1"><path d="M90.63,0V2.23H73.72c-.68,0-1,.49-1,1.13a1,1,0,0,0,1,1.08H87.51C89.77,4.44,91,5.52,91,7.83c0,1.93-1,3.3-3,3.3H70.61V8.9h16.9c.58,0,.83-.5.83-1s-.12-1.23-.83-1.23H73.18a2.91,2.91,0,0,1-2.91-3.2A3.1,3.1,0,0,1,73.72,0Z" style="fill:#f2f2f2;fill-rule:evenodd"/><path d="M113.42,0V2.23H96.72c-.39,0-.53.38-.53.71V8.35a.5.5,0,0,0,.53.55h16.7v2.23H96.72A2.93,2.93,0,0,1,93.66,8V3.27c0-2.11.89-3.27,3.06-3.27Z" style="fill:#f2f2f2;fill-rule:evenodd"/><polygon points="116.14 0 118.7 0 118.7 4.33 133.47 4.33 133.47 0 136.09 0 136.09 11.13 133.47 11.13 133.47 6.56 118.7 6.56 118.7 11.13 116.14 11.13 116.14 0" style="fill:#f2f2f2;fill-rule:evenodd"/><polygon points="138.77 0 159.64 0 159.64 2.23 141.31 2.23 141.31 4.38 159.64 4.38 159.64 6.59 141.31 6.59 141.31 8.9 159.64 8.9 159.64 11.13 138.77 11.13 138.77 0" style="fill:#f2f2f2;fill-rule:evenodd"/><path d="M23.32,8.32V2.81A2.71,2.71,0,0,1,26.27,0H41.13a2.71,2.71,0,0,1,2.95,2.81V8.32a2.71,2.71,0,0,1-2.95,2.81H26.27A2.71,2.71,0,0,1,23.32,8.32Zm4,.58h12.9c.79,0,1.43-.35,1.43-1.24V3.47c0-.9-.63-1.24-1.43-1.24H27.33c-.8,0-1.44.34-1.44,1.24V7.66C25.89,8.55,26.55,8.9,27.33,8.9Z" style="fill:#f2f2f2;fill-rule:evenodd"/><path d="M0,0H18.22C20,0,20.71,1.66,20.71,3.2V4.49a3.07,3.07,0,0,1-3.18,3.36h-15v3.28H0ZM2.54,2.23V5.62H17c.63,0,1.18-.25,1.18-1V3.41A1.08,1.08,0,0,0,17,2.23Z" style="fill:#f2f2f2;fill-rule:evenodd"/><path d="M46.82,0h18.3a2.33,2.33,0,0,1,2.49,2.23V5.12c0,1.2-.94,1.85-2,2.13,1.54.72,1.86,2.32,2,3.88H65.12c-.11-1.68-.83-3.28-2.76-3.28h-13v3.28H46.82Zm2.54,2.23V5.62H64.49c.5,0,.63-.43.63-.85V3.26c0-.72-.27-1-1-1Z" style="fill:#f2f2f2;fill-rule:evenodd"/></g></g></svg>