<svg xmlns="http://www.w3.org/2000/svg" viewBox="0 0 102.97 20.42"><g id="Layer_2" data-name="Layer 2"><g id="Layer_1-2" data-name="Layer 1"><path id="path3408" d="M4.71,20.29c-.06-.07-.13-.14-.16-.14a1.21,1.21,0,0,1-.33-.26c-.16-.14-.36-.3-.46-.37a2.2,2.2,0,0,1-.34-.28,3.63,3.63,0,0,0-.35-.3l-.49-.39-.39-.33-.34-.28c-.14-.11-.28-.24-.32-.28a.18.18,0,0,0-.11-.09A2,2,0,0,1,1,17.25a2.36,2.36,0,0,0-.39-.32,2.09,2.09,0,0,1-.32-.27L0,16.39l.26-.25a3.94,3.94,0,0,1,.43-.37,2.17,2.17,0,0,0,.26-.2l.57-.48c.27-.21.55-.46.63-.54a.72.72,0,0,1,.18-.15A3,3,0,0,0,2.85,14a2,2,0,0,1,.23-.18,3.71,3.71,0,0,0,.47-.39,3.74,3.74,0,0,1,.4-.31A.59.59,0,0,0,4.13,13a2.62,2.62,0,0,1,.61-.49.05.05,0,0,0,0-.05s0,0,.07,0,.07.14.07,1v1l.86,0c1.93.07,5.84.09,5.87,0a.19.19,0,0,1,.11,0s.13-.08.19-.17a.72.72,0,0,0,0-.81c-.16-.28-.32-.37-2.22-1.28-.35-.17-.74-.35-.85-.39s-.39-.19-.62-.32l-.52-.26a11.5,11.5,0,0,1-1.13-.69,7,7,0,0,1-1.2-1.11l-.17-.26a3.23,3.23,0,0,1-.45-.93c0-.12-.07-.37-.11-.58a5.42,5.42,0,0,1,.07-2.16.34.34,0,0,0,0-.18,2.81,2.81,0,0,1,.6-1.13s0,0,0-.08a4.33,4.33,0,0,1,1-.95,4,4,0,0,1,.69-.38c1.18-.57,1.38-.59,4.95-.57,1.54,0,3.05,0,3.35.05l.54,0V6.08l-3,0H9.73a.84.84,0,0,0-.3.15c-.15.12-.15.14-.15.45s0,.35.13.47a2,2,0,0,0,.33.25c.11,0,.41.21.67.36A5.33,5.33,0,0,0,11,8a1,1,0,0,1,.26.12.4.4,0,0,0,.17.08s.42.19,1.17.57a1.36,1.36,0,0,0,.33.12S13,8.94,13,9a.06.06,0,0,0,.06,0s.07,0,.08,0a1.34,1.34,0,0,0,.46.24,1.28,1.28,0,0,1,.3.16,2.16,2.16,0,0,0,.28.17,1.08,1.08,0,0,1,.2.12,2,2,0,0,0,.32.22,1.27,1.27,0,0,1,.31.2,2.39,2.39,0,0,0,.47.37,1.87,1.87,0,0,1,.31.34c.12.15.24.31.27.33a2.15,2.15,0,0,1,.3.47s.06.17.12.34a5.4,5.4,0,0,1,.23,2.65,6.6,6.6,0,0,1-.45,1.42,5.41,5.41,0,0,1-.85,1.06c-.1.07-.25.21-.34.29a.52.52,0,0,1-.21.14,1.49,1.49,0,0,0-.43.23,1.77,1.77,0,0,1-.3.14l-.32.14a6.43,6.43,0,0,1-1.41.28,14.62,14.62,0,0,1-2.16.06,20.42,20.42,0,0,0-2.45-.06l-2.66,0H5l0,1c0,1.13,0,1.17-.23.91Zm18.22-1.54a10.66,10.66,0,0,1-1.74-.42,4.48,4.48,0,0,1-1.28-.63.82.82,0,0,0-.22-.12,5.93,5.93,0,0,1-1.36-1.42,1.15,1.15,0,0,0-.13-.27,4.81,4.81,0,0,1-.41-1c-.06-.21-.07-.92-.09-6.48V2.16h4.79V13.7l.1.2a1.07,1.07,0,0,0,.66.62l.36.18h.64a1.9,1.9,0,0,0,1.21-.24.25.25,0,0,1,.13-.06,1.19,1.19,0,0,0,.44-.49c0-.06.05-2.34.05-5.93V2.16H30.9V14.33l-.12.41c-.06.23-.14.5-.17.61a3.72,3.72,0,0,1-.52,1,1.13,1.13,0,0,0-.17.24,5.83,5.83,0,0,1-1.08,1,1.48,1.48,0,0,0-.26.16,4.82,4.82,0,0,1-1,.51.92.92,0,0,0-.22.06,7.22,7.22,0,0,1-1.83.47,13.59,13.59,0,0,1-2.63,0Zm29.05,0a7.87,7.87,0,0,1-1.71-.37,4.64,4.64,0,0,1-2-1.14c-.19-.19-.34-.34-.34-.35l-.2-.29a2.5,2.5,0,0,1-.44-.79.25.25,0,0,0,0-.12,4.88,4.88,0,0,1-.32-1c-.06-.3-.07-.93-.09-6.43V2.16H51.7V7.93a53.08,53.08,0,0,0,.08,6c.11.34.24.45.64.57a1.77,1.77,0,0,0,1.79-.36l.14-.2V8l0-5.89h4.78V7.92c0,6.37,0,6,.29,6.33a1.42,1.42,0,0,0,1,.31,2.32,2.32,0,0,0,.71-.09.71.71,0,0,0,.53-.46c.09-.18.09-.36.09-6V2.16h4.83v6c0,5.21,0,6.05-.07,6.38a5.3,5.3,0,0,1-.43,1.31,1.15,1.15,0,0,0-.14.32.25.25,0,0,1-.06.13s-.12.14-.19.24a5.07,5.07,0,0,1-.87.94,6,6,0,0,1-1.25.75l-.49.15a7.74,7.74,0,0,1-3.15.35,8.68,8.68,0,0,1-1.69-.39L58,18.2a4.24,4.24,0,0,1-.93-.53.37.37,0,0,0-.49,0,.42.42,0,0,0-.18.14,4.07,4.07,0,0,1-.8.45,2.26,2.26,0,0,0-.51.19,7.56,7.56,0,0,1-3.06.31Zm16.13-.28s0-2.81,0-6.18a63.72,63.72,0,0,1,.09-6.44,7,7,0,0,1,.35-1l.15-.32a1.66,1.66,0,0,1,.18-.3,2.63,2.63,0,0,0,.37-.5.94.94,0,0,1,.19-.2l.43-.37a1,1,0,0,1,.27-.22,1.44,1.44,0,0,0,.32-.18,7.42,7.42,0,0,1,2.63-.94,12.86,12.86,0,0,1,2.64-.07,7.68,7.68,0,0,1,2,.46.92.92,0,0,0,.27.09,3.5,3.5,0,0,1,.86.44l.31.19a4.93,4.93,0,0,1,1,.94,2.47,2.47,0,0,0,.21.29,4.49,4.49,0,0,1,.76,1.75c.08.35.09.69.09,6.49v6.13H76.48V16.12l0-2.36H72.92v2.36l0,2.36H70.51a13.94,13.94,0,0,1-2.4,0Zm8.36-10a5.48,5.48,0,0,0-.1-1.84A.94.94,0,0,0,75.75,6a2.88,2.88,0,0,0-2.14,0,.87.87,0,0,0-.57.55l-.12.25V10h3.55Zm10.16,7.72V13.78l-.41-.14a6.25,6.25,0,0,1-.81-.33,3.08,3.08,0,0,0-.45-.2,5.78,5.78,0,0,1-.93-.65,5,5,0,0,1-.92-1.05,3,3,0,0,0-.18-.27,7.56,7.56,0,0,1-.41-1.22,34.53,34.53,0,0,1-.07-4V2.15h4.74V5.39c0,3.31,0,3.68.19,3.88a2.27,2.27,0,0,0,.92.54,4.22,4.22,0,0,0,1.37,0A1.53,1.53,0,0,0,90.74,9c.08-.17.08-.34.09-1.68,0-.83,0-1.7,0-1.94a5.77,5.77,0,0,1,.39-1.54,5.13,5.13,0,0,1,.75-1,2,2,0,0,0,.29-.19,2.63,2.63,0,0,1,1-.46l.53-.1a14.92,14.92,0,0,1,2.31-.08h2V1c0-1,0-1.16.14-.95a.73.73,0,0,0,.22.2,3.3,3.3,0,0,1,.46.36,2.29,2.29,0,0,0,.42.34.59.59,0,0,1,.18.13,2.65,2.65,0,0,0,.6.5s.06,0,.06,0a5.85,5.85,0,0,0,.6.53,8.87,8.87,0,0,1,.7.6c0,.06.11.11.14.11a1.67,1.67,0,0,1,.36.27,3.35,3.35,0,0,0,.41.34,2.14,2.14,0,0,1,.59.59,2.34,2.34,0,0,1-.66.64A2.76,2.76,0,0,0,102,5c0,.06-.34.3-.64.55s-.57.48-.6.51l-.17.12a3.41,3.41,0,0,0-.39.33,2.43,2.43,0,0,1-.32.26,1.6,1.6,0,0,0-.32.25,3.28,3.28,0,0,1-.42.36c-.08,0-.3.23-.48.38l-.46.39-.11.09,0-1v-1l-1.17,0a4.3,4.3,0,0,0-1.23.07A10.28,10.28,0,0,0,95.61,8c0,2.1,0,2.12-.56,3.18a1.82,1.82,0,0,1-.31.51c-.06.08-.24.28-.39.45a1.83,1.83,0,0,1-.32.31.59.59,0,0,0-.22.15,2.89,2.89,0,0,1-.74.51l-.55.25c-.22.1-.54.24-.72.3l-.33.11,0,2.34v2.35h-4.8ZM32.41,10.31V2.16H36.5c4.48,0,5,0,5.71.26a6.24,6.24,0,0,1,1.49.72,5.33,5.33,0,0,1,.9.89,5,5,0,0,1,.63,1.31,3.05,3.05,0,0,1,.13,1.26,4.19,4.19,0,0,1,0,1,1.1,1.1,0,0,0-.11.24,5.19,5.19,0,0,1-.46.91.55.55,0,0,0-.09.16,7.9,7.9,0,0,1-.77.76,1,1,0,0,0-.29.23.67.67,0,0,0,.19.11,1,1,0,0,1,.29.18l.29.23a4.09,4.09,0,0,1,1,1.24,1,1,0,0,0,.09.23A4.59,4.59,0,0,1,45.79,13a7.37,7.37,0,0,1-.08,1.65,8,8,0,0,1-.49,1.42,4.82,4.82,0,0,1-.55.77,4.65,4.65,0,0,1-.89.75l-.44.23a3.68,3.68,0,0,1-.93.38,1.1,1.1,0,0,0-.29.05c-.54.16-1,.18-5.37.18H32.41ZM40,14.81a1.15,1.15,0,0,0,.58-.34.11.11,0,0,1,.09-.07s.11-.1.17-.24.11-.29.11-.9v-.68l-.17-.26a1.72,1.72,0,0,0-.36-.39l-.19-.13-1.48,0c-.81,0-1.49,0-1.51,0s0,.71,0,1.55v1.54h1.29a12.61,12.61,0,0,0,1.51,0Zm0-6.29a1.54,1.54,0,0,0,.58-.79A1.81,1.81,0,0,0,40.19,6c-.33-.28-.32-.28-1.74-.3H37.16v3h1.29c1.25,0,1.31,0,1.5-.12Z" style="fill:#f2f2f2"/></g></g></svg>