<svg xmlns="http://www.w3.org/2000/svg" viewBox="0 0 106.51 17.79"><g id="Layer_2" data-name="Layer 2"><g id="Layer_1-2" data-name="Layer 1"><path d="M30.38,9.1h-5.8V3.25H21.33V16.44h3.25V10h5.8v6.42h3.25V3.25H30.38Zm7,7.34h3.26V3.25H37.37Zm6.29-.4a2.88,2.88,0,0,1-1.76-.65l-.5.84a4.67,4.67,0,0,0,2.83.85c3.18,0,5.66-2,7.22-7.39C52.79,5,53.7,3.88,55.54,3.88a2.88,2.88,0,0,1,1.56.43l.35-.92A5.38,5.38,0,0,0,55,2.89c-3.11,0-5.6,1.77-7.09,6.67C46.31,14.9,45.52,16,43.66,16m59.53-6.16c0,3.53-1.41,6-4.24,6s-4.31-2.47-4.31-6S96.12,3.81,99,3.81s4.24,2.54,4.24,6.07m3.32,0C106.51,4.73,102.2,3,99,3s-7.64,1.7-7.64,6.85S95.7,16.66,99,16.66s7.56-1.63,7.56-6.78M79.44,4.09h.84c3.33,0,5.8,1.42,5.8,5.79s-2.47,5.72-5.8,5.72h-.84ZM76.18,16.44h4.53C85,16.44,89.4,15,89.4,9.88S85,3.25,80.71,3.25H76.18Zm-14.7-.91V10h5V9.1h-5V4.16h5.3V3.25H58.23V16.44H67v-.91Zm7.71.91h3.25V3.25H69.19Z" style="fill:#f2f2f2"/><path d="M11.43,8.4c-2.26,5.93-3.68,8.19-6.64,8.19a5.3,5.3,0,0,1-4-1.92L0,15.5a7.22,7.22,0,0,0,5.48,2.29c4.67,0,7.29-2.48,9.63-8.9,2.05-5.64,3.53-7.83,6.64-7.83a4.29,4.29,0,0,1,2.83,1l.57-.92a6.84,6.84,0,0,0-4-1.13C17,0,13.76,2.19,11.43,8.4" style="fill:#f2f2f2"/></g></g></svg>