<svg xmlns="http://www.w3.org/2000/svg" viewBox="0 0 97.65 17.03"><g id="Layer_2" data-name="Layer 2"><g id="Layer_1-2" data-name="Layer 1"><path d="M96.16,13.75a1.49,1.49,0,0,0,0,3h0a1.49,1.49,0,0,0,1.49-1.49h0a1.49,1.49,0,0,0-1.48-1.49Zm0,2.8a1.3,1.3,0,0,1-1.3-1.31h0a1.31,1.31,0,0,1,1.3-1.31h0a1.31,1.31,0,0,1,1.31,1.31h0a1.31,1.31,0,0,1-1.3,1.31Z" style="fill:#f2f2f2;fill-rule:evenodd"/><path d="M96.93,14.85a.4.4,0,0,0-.19-.36.69.69,0,0,0-.4-.08h-.73v1.66h.2V15.3h.38l.47.77h.25l-.51-.77c.3,0,.53-.13.53-.45Zm-.8.29h-.32v-.59h.48c.21,0,.43,0,.43.29S96.36,15.14,96.13,15.14ZM87.44,6.8l3-3.24A1,1,0,0,0,90.75,3c0-.24-.21-.34-.85-.34h-.77v-2h8.31V2.67H96.35c-1.26,0-1.5.19-3.26,2.41l-4.81,5.2v3.17c0,.81.41,1.1,1.58,1.1h1.82v2H80v-2h1.82c1.17,0,1.58-.29,1.58-1.1V10.28L77.77,4c-.94-1.1-.81-1.34-3.42-1.34v-2H84.88V2.67h-.75c-.76,0-1.08.15-1.08.43s.23.43.38.62L86.3,6.85a.69.69,0,0,0,1.14,0ZM16.81.62h2.54V6.34H17a3.71,3.71,0,0,0-1.58-2.18,9.77,9.77,0,0,0-5.88-2c-2.77,0-5.1.86-5.1,2.12,0,3.51,15.84.72,15.84,7.35,0,3.46-3.4,5.39-9.49,5.39a17.83,17.83,0,0,1-7.18-1.66c-.59-.34-.84.33-1,1.16H.06V10.61H2.42A4.63,4.63,0,0,0,4.31,13c1.14,1.05,3.86,1.82,6.35,1.79,3.76,0,5.05-.86,5.05-2.05s-1.27-1.48-5.39-2.12l-3.5-.57C2.87,9.47,0,8.59,0,5.44S3.63.12,9.38.12a12.34,12.34,0,0,1,6.39,1.42c.54.35,1.05.39,1-.92ZM66.37,10.2l0-6.36c0-.83-.44-1.12-1.68-1.12H63.29v-2h9.27v2H71.35c-1.24,0-1.67.29-1.67,1.12V16.65l-3.63,0L54.29,5.49v8.08c0,.81.43,1.12,1.67,1.12h1.62v2H48v-2h1.59c1.24,0,1.68-.31,1.68-1.12V3.84c0-.83-.44-1.12-1.68-1.12H48v-2h8.32ZM35.3,0c-7.39,0-12,3.27-12,8.51s4.56,8.4,11.79,8.4c7.68,0,12.15-3.2,12.15-8.66C47.22,3.34,42.4,0,35.3,0Zm-.17,14.83c-4.09,0-6.44-2.36-6.44-6.43s2.45-6.35,6.65-6.35c4,0,6.37,2.41,6.37,6.51s-2.38,6.27-6.58,6.27Z" style="fill:#f2f2f2;fill-rule:evenodd"/></g></g></svg>