<svg xmlns="http://www.w3.org/2000/svg" viewBox="0 0 142.93 34.51"><g id="Layer_2" data-name="Layer 2"><g id="Layer_1-2" data-name="Layer 1"><path d="M127.55,11.62a1.47,1.47,0,0,0,1.56-1l.8-9c0-.9-1-1.63-2.36-1.63s-2.36.73-2.36,1.63l.8,9a1.48,1.48,0,0,0,1.56,1h0m-4.88,2.82a1.5,1.5,0,0,0,0-1.84l-7.43-5.2c-.77-.45-1.92.09-2.58,1.23s-.54,2.41.23,2.85l8.22,3.83a1.48,1.48,0,0,0,1.61-.88h0m9.76,0a1.5,1.5,0,0,0,1.62.88l8.22-3.83c.77-.44.88-1.71.23-2.85S140.68,7,139.91,7.4l-7.42,5.2a1.48,1.48,0,0,0-.05,1.84h0m-4.88,8.47a1.47,1.47,0,0,1,1.56,1l.8,9c0,.89-1,1.62-2.36,1.62s-2.36-.73-2.36-1.62l.8-9a1.48,1.48,0,0,1,1.56-1h0m4.88-2.82a1.48,1.48,0,0,1,1.62-.87L142.27,23c.77.45.88,1.72.23,2.86s-1.82,1.67-2.59,1.23l-7.42-5.21a1.47,1.47,0,0,1-.05-1.83h0m-9.76,0a1.49,1.49,0,0,1,0,1.83l-7.43,5.21c-.77.44-1.92-.1-2.58-1.23s-.54-2.41.23-2.86l8.22-3.82a1.46,1.46,0,0,1,1.61.87h0" style="fill:#f2f2f2"/><path d="M80.73,21.9a2.73,2.73,0,0,1-.1.81,2.85,2.85,0,0,1-2.74,1.93,1.86,1.86,0,0,1-2-2c0-2.06,2.27-2.63,4.86-2.62V21.9Zm4.07-3.61c0-3.4-1.46-6.4-6.38-6.4a11.7,11.7,0,0,0-5.63,1.34l.8,2.74a8.28,8.28,0,0,1,4.11-1.16c2.49,0,2.9,1.42,2.9,2.33v.21c-5.44,0-8.88,1.88-8.88,5.72a4.53,4.53,0,0,0,4.8,4.54,5.45,5.45,0,0,0,4.37-1.94H81s.62,2.6,4,1.6a23.2,23.2,0,0,1-.23-3.62V18.29M0,7.24S3.56,21.82,4.12,24.18C4.79,26.94,6,28,9.42,27.27l2.22-9c.56-2.25.94-3.85,1.3-6.13H13a56.92,56.92,0,0,0,1.08,6.13s.9,4.11,1.36,6.26,1.76,3.51,5.13,2.77l5.29-20H21.6L19.79,15.9c-.48,2.52-.92,4.49-1.26,6.8h-.06c-.31-2.29-.71-4.18-1.2-6.63L15.39,7.24H10.94l-2,8.6c-.57,2.62-1.11,4.73-1.44,7H7.42c-.34-2.1-.81-4.75-1.31-7.28,0,0-1.19-6.16-1.61-8.28H0M34,21.9a2.73,2.73,0,0,1-.1.81,2.87,2.87,0,0,1-2.75,1.93,1.86,1.86,0,0,1-2-2C29.08,20.58,31.36,20,34,20V21.9ZM38,18.29c0-3.4-1.45-6.4-6.38-6.4A11.66,11.66,0,0,0,26,13.23l.8,2.74a8.24,8.24,0,0,1,4.1-1.16c2.5,0,2.91,1.42,2.91,2.33v.21c-5.45,0-8.88,1.88-8.88,5.72a4.53,4.53,0,0,0,4.79,4.54,5.48,5.48,0,0,0,4.38-1.94h.09s.62,2.6,4,1.6A22,22,0,0,1,38,23.65V18.29M44.79,23V7.24H40.73v20h4.06V23M98,7.24V22c0,2,.38,3.46,1.2,4.33a4.49,4.49,0,0,0,3.31,1.26,10,10,0,0,0,3-.43l0-3.18a6.4,6.4,0,0,1-1.55.18c-1.39,0-1.85-.89-1.85-2.72V15.81h3.54V12H102V7.24H98m-10.5,5v15H91.7v-7.7a5.32,5.32,0,0,1,.1-1.11,3.16,3.16,0,0,1,3.31-2.65,7,7,0,0,1,1.21.11V12a4.22,4.22,0,0,0-.92-.09,4.43,4.43,0,0,0-4.1,3.17h-.11V12.23H87.51m-39.87,0v15h4.09V18.45a3.6,3.6,0,0,1,.19-1.23,2.78,2.78,0,0,1,2.49-1.93c1.65,0,2.42,1.39,2.42,3.41v8.57h4.08V18.34a4.39,4.39,0,0,1,.17-1.22,2.59,2.59,0,0,1,2.46-1.83C65.21,15.29,66,16.66,66,19v8.24H70.1V18.41c0-4.68-2.37-6.53-5-6.53a5.45,5.45,0,0,0-3,.82,6.42,6.42,0,0,0-1.91,1.88h-.06A4.27,4.27,0,0,0,56,11.89a4.75,4.75,0,0,0-4.38,2.38h-.06v-2H47.64" style="fill:#f2f2f2"/><path d="M141.33,29.23h.06c.08,0,.14,0,.14-.08s-.05-.09-.13-.09h-.07v.17Zm0,.41h-.22v-.71a1.66,1.66,0,0,1,.31,0,.54.54,0,0,1,.29.06.19.19,0,0,1,.08.16c0,.07-.07.13-.17.16h0c.08,0,.12.08.15.18a.49.49,0,0,0,.05.17h-.25a.86.86,0,0,1-.05-.15.11.11,0,0,0-.12-.11h-.07v.26Zm.09-.94a.58.58,0,1,0,.57.57.56.56,0,0,0-.57-.57Zm0-.19a.77.77,0,1,1-.79.76.77.77,0,0,1,.79-.76h0" style="fill:#f2f2f2"/></g></g></svg>