<svg xmlns="http://www.w3.org/2000/svg" viewBox="0 0 97.79 12.67"><g id="Layer_2" data-name="Layer 2"><g id="Layer_1-2" data-name="Layer 1"><path d="M48.25,5.1H42.11V.38H40.25v12h1.86V6.68h6.14v5.67h1.84V.38H48.25M30.13.34c-.67,0-2,0-3.26,0v12h1.88V7.78c.47,0,1.44,0,2.22,0A3.74,3.74,0,0,0,34.9,3.86C34.93.15,30.81.34,30.13.34ZM30,6.19H28.79V1.86h1.06c.49,0,3.37-.22,3.46,2S31.15,6.19,30,6.19ZM12.8.32l0,12h7.54V10.78H14.7V6.7h4c0-.34,0-.84,0-1.5h-4V1.93h5.66c0-.95,0-1.61,0-1.61Zm-11,2.94c0-2,2.6-2,4.14-.79L6.54.85C2.06-1.3,0,1.55,0,3.36,0,7.72,6.19,6.79,5.3,9.85,5,11,3,11.6.71,10.21A15.91,15.91,0,0,1,0,11.81c3,1.59,6.94.82,7.07-2.44C7.25,5.26,1.84,5.55,1.84,3.26Zm79.25.44C80.82.13,77.35.4,76.59.36s-2,0-3.15,0v12h1.88v-5c.64,0,.84,0,1.8,0l3.42,5.08h2.28L79,6.92A2.94,2.94,0,0,0,81.09,3.7ZM76.48,5.87c-.42,0-.74,0-1.16,0V1.79h1c.47,0,2.93-.15,3.15,1.82.26,2.33-2.47,2.26-3,2.26Zm17-5.53H91.31l-3.93,12h1.86c.58-2.17.78-2.79.78-2.79l4.86,0c.57,1.61,1,2.83,1,2.83h1.92Zm-3,7.86,1.9-5.94h0l2,5.92ZM61.75,0a6.12,6.12,0,0,0-6.32,6.34,6.32,6.32,0,1,0,12.63,0A6.12,6.12,0,0,0,61.75,0Zm0,10.94a4.26,4.26,0,0,1-4.39-4.6,4.4,4.4,0,1,1,8.78,0A4.28,4.28,0,0,1,61.75,10.94Z" style="fill:#f2f2f2"/></g></g></svg>