<svg xmlns="http://www.w3.org/2000/svg" viewBox="0 0 95.44 28.71"><g id="Layer_2" data-name="Layer 2"><g id="Layer_1-2" data-name="Layer 1"><path d="M20.31,6.85v9.23a.56.56,0,0,1-.56.57H16.83a.56.56,0,0,1-.56-.57v-15A.57.57,0,0,1,16.83.5h2.7a.57.57,0,0,1,.56.57V3.18s1-3,3.83-3A3.88,3.88,0,0,1,27.9,3,4.27,4.27,0,0,1,31.79.17a4,4,0,0,1,4.34,4.24l0,2.47v9.24a.57.57,0,0,1-.57.56H32.69a.57.57,0,0,1-.57-.56L32.1,6c.08-2.28-1.77-2.11-1.77-2.11C28,4,28.24,6.88,28.24,6.88v9.24a.57.57,0,0,1-.57.56H24.76a.57.57,0,0,1-.57-.56V6.27s.17-2.36-1.9-2.36C22.29,3.91,20.24,3.64,20.31,6.85Zm75.13,0v9.24a.57.57,0,0,1-.57.56l-3,.06a.56.56,0,0,1-.56-.56V6.27s.17-2.36-1.91-2.36c0,0-2-.1-2,3.61v8.56a.56.56,0,0,1-.56.57H83.91a.56.56,0,0,1-.56-.57v-15A.57.57,0,0,1,83.91.5h2.7a.58.58,0,0,1,.57.57h0V3.18s1-3,3.82-3a3.77,3.77,0,0,1,4.1,2.74s.34.66.34,3.91ZM74.39.1c-3.72,0-6.75,3.14-6.75,8.43C67.64,13.19,70,17,74.39,17c4.17,0,6.75-3.77,6.75-8.43C81.14,3.34,78.12.1,74.39.1Zm2.35,8.62a15.31,15.31,0,0,1-.24,3c-.36,2.1-1.89,2.1-2.11,2.09s-1.78,0-2.1-2.09a14.71,14.71,0,0,1-.25-3V8.39a14.71,14.71,0,0,1,.25-3.05c.32-2.08,1.86-2.11,2.1-2.1s1.75,0,2.11,2.1a15.31,15.31,0,0,1,.24,3.05ZM66,3.16V1a.57.57,0,0,0-.56-.57H55.75a.57.57,0,0,0-.56.57h0V3.14a.56.56,0,0,0,.56.57h5l-6,8.63a1.45,1.45,0,0,0-.22.73V15.7s0,.9,1,.38A10,10,0,0,1,60.44,15a10.9,10.9,0,0,1,5,1.19s.83.38.83-.45V13.43s.08-.6-.71-1a10.7,10.7,0,0,0-5.33-1.06ZM14,14l-.91-1.39a2.31,2.31,0,0,1-.27-1.09V5.07C13-.47,6.82,0,6.82,0,1.37,0,.56,4.26.56,4.26c-.23.85.44.87.44.87l2.66.27A.54.54,0,0,0,4.28,5,2.33,2.33,0,0,1,6.6,3.11,1.88,1.88,0,0,1,8.71,4.94V6.48c-4.26.14-6.24,1.33-6.24,1.33A5.07,5.07,0,0,0,0,12.26a4.36,4.36,0,0,0,4.6,4.63,6.42,6.42,0,0,0,4.69-2.16,8.87,8.87,0,0,0,1.47,1.78.69.69,0,0,0,1,.09l2.15-1.85A.53.53,0,0,0,14,14ZM6,13.9c-1.38,0-1.9-1.37-1.67-2.72S5.8,8.76,8.71,8.79v.82c.1,3.6-1.52,4.29-2.67,4.29ZM52.75,14l-.91-1.39a2.18,2.18,0,0,1-.27-1.09V5.07c.12-5.54-6-5.06-6-5.06-5.45,0-6.26,4.25-6.26,4.25-.23.85.44.87.44.87l2.66.27A.54.54,0,0,0,43,5a2.33,2.33,0,0,1,2.32-1.85,1.88,1.88,0,0,1,2.11,1.83V6.48c-4.26.14-6.24,1.33-6.24,1.33a5.07,5.07,0,0,0-2.47,4.45,4.36,4.36,0,0,0,4.6,4.63A6.42,6.42,0,0,0,48,14.73a8.87,8.87,0,0,0,1.47,1.78.69.69,0,0,0,1,.09l2.15-1.85a.53.53,0,0,0,.13-.79Zm-8-.06c-1.38,0-1.9-1.37-1.67-2.72s1.43-2.42,4.34-2.39v.82c.1,3.6-1.52,4.29-2.67,4.29Z" style="fill:#f2f2f2"/><path d="M60.09,26.09s-.25.42,0,.52a.77.77,0,0,0,.76-.26,10.74,10.74,0,0,0,3.15-7.58s0-.62-.22-.78c0,0-1-.86-4.43-.6,0,0-3,.21-4.67,1.67a.45.45,0,0,0-.15.3s0,.36.87.2a24.37,24.37,0,0,1,4.82-.2s.93.11,1.19.43c0,0,.42.35.2,1.52a22.35,22.35,0,0,1-1.57,4.78Z" style="fill:#f2f2f2"/><path d="M59.48,21.39a.73.73,0,0,1-.28,1.09s-7.78,6.23-20.84,6.23a37.2,37.2,0,0,1-24.67-9.54s-.4-.35-.15-.67c0,0,.22-.29.78,0a50.75,50.75,0,0,0,24.43,6.58,50.46,50.46,0,0,0,19.53-3.86s.79-.41,1.2.14Z" style="fill:#f2f2f2"/></g></g></svg>