<svg xmlns="http://www.w3.org/2000/svg" viewBox="0 0 104.31 32.72"><g id="Layer_2" data-name="Layer 2"><g id="Layer_1-2" data-name="Layer 1"><path d="M54.33,8.26H51.2l-1.76,2.87h3.12Zm8.13,7.54a8.44,8.44,0,0,0-6.12,4.81,13.23,13.23,0,0,0-1.59,5.18,17.61,17.61,0,0,1,2.11-1.87,9.66,9.66,0,0,1,2.23-1.29,11.62,11.62,0,0,1,.83-2.41,4.8,4.8,0,0,1,2.6-2.73c2.28-.57,1.19,3.59-.48,6.31-.9,1.46-4.1,5.65-6.85,5.65s-3.28-2.65-2.7-5.13S53.87,18.69,57.88,13A36.42,36.42,0,0,1,68.75,2.43c2.59-1.47,3.64-.82,3.64-.82a22.42,22.42,0,0,0-5.17,4.47c-1.8,2.33-2.87,5-2,6.25s3.58,1.25,6.66-3.19,2.26-7,2.26-7A4.19,4.19,0,0,1,74.73,2c1.48-.2,2.66.19,4.5,1.13S83,5.7,85.53,7c.76-.83,1.6-1.72,2.5-2.58-3.41-1.66-6-4-9.34-4.25A11.77,11.77,0,0,0,73.48,1S72.59-.19,69.86.21,58.68,4.13,51.51,15.62C45,26,48.07,32,52.74,31.9c5-.07,9.86-5.69,11.49-10.33s-.29-5.9-1.77-5.77Zm9.92-9.66a12.45,12.45,0,0,1-3.33,4.62c-1.58,1.42-2.45,1.38-2.82,1.09-1-.75.33-3.56,2.62-6.08a13,13,0,0,1,4.22-3.28S73.4,3.66,72.38,6.14Zm28.16-3C98.23,4.61,95,6,91.94,5.66c-.78.81-1.61,1.74-2.45,2.76,5.34,1.05,10-2.26,12.5-5.08A16.39,16.39,0,0,0,104.31,0a21,21,0,0,1-3.77,3.11Z" style="fill:#f2f2f2"/><path d="M98,16.18H94.72l-.54.83a2.32,2.32,0,0,0-1.81-1.2c-1.94,0-3.89,1.53-6.16,4.11-1.66,1.89-4.42,6.1-4.42,6.1s-2.11,3.25-3.18,3c-1.82-.44,1.53-7.18,1.53-7.18a39,39,0,0,0,4-3c1.43-1.21,3.09-2.87,4.61-4.41A53.73,53.73,0,0,0,93.36,9a9.69,9.69,0,0,1-1.22.13A53.24,53.24,0,0,1,88,13.92a58.23,58.23,0,0,1-4.86,4.54,16.75,16.75,0,0,1-2,1.41A72.16,72.16,0,0,1,87.29,10c3.83-5.2,9.18-10,8.76-7.74A10.13,10.13,0,0,1,94.9,4.93a12.41,12.41,0,0,0,1.27-.33c.92-1.9,1.23-3.47.55-3.92C93.91-1.17,86.78,6.47,83.2,10.91a68,68,0,0,0-6.81,11.23,7,7,0,0,1-1.18.35,1.3,1.3,0,0,1-.62,0s0,0,0,0,3.15-5.88-.07-6.66-8.5,5-10.41,9c-1.32,2.75-2.06,6.2.19,7,2.44.89,6.59-3.57,7.56-4.86A40,40,0,0,0,74,23.54s.59,0,.92-.08a8.37,8.37,0,0,0,.91-.17s-.4,1.06-.84,2.4c-.81,2.5-1.55,6.07,1.38,6.24C78.26,32,81,28.66,81,28.66s-.74,3,1.68,3.27c1.79.2,4.39-2.57,4.39-2.57S86.5,31.74,88.32,32c1.55.18,3.75-1.64,5.56-3.64a37.8,37.8,0,0,0,3.48-4.58H96.22s-2.54,3.85-4.32,4.89c-1.47.84-1-.51-.52-1.23S98,16.18,98,16.18ZM72.92,23.44a22.53,22.53,0,0,1-1.75,2.66c-1,1.22-2.69,3-3.73,2.66-1.64-.61.16-4.17,1.34-5.89A21.31,21.31,0,0,1,70.12,21c0-.05.07-.09.1,0a4.55,4.55,0,0,0,1.14,1.38,6.76,6.76,0,0,0,1.51,1c.06,0,.1,0,0,.15Zm.74-1.29c-.1.18-.18.18-.39.13a2.73,2.73,0,0,1-1.93-2.43c0-1.56,2.21-3.09,3.08-2.44s.42,2.17.11,3a12.87,12.87,0,0,1-.87,1.77Zm15,3.87c-.44.59-.8,1.13-1.13,1.51-.7.81-1.16,1.19-1.56,1.29a.9.9,0,0,1-.63-.07c-.6-.36-.18-1.78.86-3.69A27.31,27.31,0,0,1,90,19.57c1.82-2,2.52-2.11,3-2.09a.54.54,0,0,1,.49.47,1.15,1.15,0,0,1-.09.22c-.6,1-3.63,6.21-4.82,7.85ZM40.05,28.54a14.37,14.37,0,0,0-7.5-2.05C25,26.42,16.71,30.1,11.12,30.15c-6.6.06-6.92-5-6.43-7.8,1-6,5.3-11.73,8-14.74s5.61-5.37,8-6,2.16,1.21,1.87,1.46a2.43,2.43,0,0,0-1.21.3,2.61,2.61,0,0,0-1.24,2C20.07,7,22.11,7.3,23.6,4A2.66,2.66,0,0,0,21.67,0c-1.82-.21-4.61.43-7.93,2.56C8,6.33.2,14.59,0,23.76-.11,29,3.31,31.93,8,31.93S19.05,29.06,25.26,29c3.85,0,6.34,1.32,7.6,3.52a5.07,5.07,0,0,1,4-2.2,13.68,13.68,0,0,1,8.3,2.42,20.53,20.53,0,0,0-5.15-4.18Z" style="fill:#f2f2f2"/><path d="M22.78,7.94c-3.18-.81-8.45,4.6-10.68,9-1.37,2.72-2,6.13.47,7s6.59-3.56,7.56-4.86,2.57-3.89,2.57-3.89.49-.09.81-.17.84-.22.84-.22-.6,1.07-1.15,2.17c-.64,1.3-2.38,5.63,1,6.93,3.22,1.25,7.81-3.93,8.05-4,0,0-1.37,3.53.75,4.07,2.33.6,4.88-2.39,4.88-2.39s-.54,2.24,1.28,2.45c3.24.38,9-7.93,9-7.93H47s-2.92,3.76-4.33,4.54-.9-.6-.52-1.22c.49-.78,6.7-11.16,6.7-11.16H45.55l-.38.6a2.22,2.22,0,0,0-1.82-1c-3.3.22-7.22,5.48-9,7.8S29,22.43,27,21.64c-2.14-.86,0-4.81,1.39-7.13,1.53-2.52,4.24-5,5.32-5,1.32,0,.8,1.17.8,1.17a2,2,0,0,0-1.7.78c-.51.64-.93,1.56-.45,2.07.78.82,1.79,0,2.39-.94,1.89-2.88.51-4.4-1-4.62-3.15-.47-6.05,3.57-8.26,5.08-1.53,1-2.17,1-2.17,1s2.65-5.21-.56-6Zm14.27,9.32A39.43,39.43,0,0,1,41,11.73c1.69-2.11,2.53-2.28,3-2.26a.54.54,0,0,1,.49.47s-3.67,6.4-5,8.22c-.44.6-.81,1.11-1.14,1.48a3.73,3.73,0,0,1-1.6,1.3.9.9,0,0,1-.63-.06c-.6-.37-.14-1.71.9-3.62ZM21.47,15.19a29.81,29.81,0,0,1-2,3c-.94,1.22-2.7,3.05-3.74,2.67-1.64-.61.1-4.14,1.28-5.87s1.35-1.95,1.38-2,.07-.09.1,0a3.39,3.39,0,0,0,1.21,1.34,7.22,7.22,0,0,0,1.7.78s.1.05,0,.15Zm1.37-2.7c-.31.8-.58,1.3-.63,1.42a.27.27,0,0,1-.32.12c-.26,0-2.26-.46-2.25-2.07s2.22-3.09,3.08-2.43.42,2.17.12,3ZM95.53,30a1.25,1.25,0,0,0-.64-.17,1.28,1.28,0,0,0-.64.17,1.22,1.22,0,0,0-.62,1,1.23,1.23,0,0,0,.17.62,1.23,1.23,0,0,0,1.09.6,1.24,1.24,0,0,0,.64-.16A1.22,1.22,0,0,0,96,31.7a1.26,1.26,0,0,0,0-1.23A1.15,1.15,0,0,0,95.53,30Zm.23,1.56a.91.91,0,0,1-.35.35,1,1,0,0,1-.52.13,1,1,0,0,1-.51-.13.84.84,0,0,1-.35-.35,1,1,0,0,1-.13-.51,1,1,0,0,1,.13-.5,1,1,0,0,1,.35-.35,1.07,1.07,0,0,1,.51-.12,1.14,1.14,0,0,1,.52.12.91.91,0,0,1,.35.35,1,1,0,0,1,0,1Z" style="fill:#f2f2f2"/><path d="M95.37,31.06a.38.38,0,0,0,0-.19.33.33,0,0,0-.1-.25.36.36,0,0,0-.25-.1h-.64v1.11h.28v-.41h.21l.26.41h.32l-.29-.43A.36.36,0,0,0,95.37,31.06ZM95.1,31A.12.12,0,0,1,95,31h-.3v-.22H95a.12.12,0,0,1,.09,0,.12.12,0,0,1,0,.16Z" style="fill:#f2f2f2"/></g></g></svg>