<svg xmlns="http://www.w3.org/2000/svg" viewBox="0 0 108.82 36.51"><g id="Layer_2" data-name="Layer 2"><g id="Layer_1-2" data-name="Layer 1"><path d="M54.85,36.51c-3.53,0-7.05-.11-10.57-.32-3.07-.18-6.14-.45-9.19-.84a98.67,98.67,0,0,1-17.84-3.86,59.26,59.26,0,0,1-8.63-3.4,21.83,21.83,0,0,1-5.91-4.17A9.83,9.83,0,0,1,.43,20.51a6.48,6.48,0,0,1,.71-6,14,14,0,0,1,3.53-3.71,30.18,30.18,0,0,1,7-3.82A81.08,81.08,0,0,1,24.81,2.94q3.71-.81,7.46-1.41c2.13-.34,4.27-.58,6.41-.8A160,160,0,0,1,58.26.05c2.88.06,5.76.2,8.64.4a114.26,114.26,0,0,1,14.73,2A87.88,87.88,0,0,1,99.08,7.73a22.54,22.54,0,0,1,6.44,4,10,10,0,0,1,2.72,3.71,7.41,7.41,0,0,1-.74,7.06,13.82,13.82,0,0,1-4.23,4,32.68,32.68,0,0,1-6.42,3.15A91.9,91.9,0,0,1,80.92,34.2c-2.94.57-5.9,1-8.88,1.35-3.3.38-6.62.64-9.94.76C59.68,36.4,57.27,36.45,54.85,36.51ZM28.64,10.45l0,.05a1.48,1.48,0,0,1,.53,1.39q0,6.11,0,12.22a1.64,1.64,0,0,1-.5,1.38s0,0,0,0H39a1.51,1.51,0,0,1-.56-1.44c0-1.23,0-2.47,0-3.7v-.27a.56.56,0,0,1,.17.18c.83,1.4,1.65,2.81,2.48,4.22.19.32.38.64,0,1h12a3.07,3.07,0,0,1-1.2-1.2c-.57-.92-1.16-1.83-1.73-2.74l-3.11-4.9.17-.25c1.09-1.58,2.18-3.15,3.26-4.73a3.66,3.66,0,0,1,1.16-1.19s0,0,0-.06H41.49a.88.88,0,0,1,0,1.05c-1,1.41-1.9,2.84-2.85,4.26l-.14.15v-.33c0-1.27,0-2.54,0-3.8a1.52,1.52,0,0,1,.48-1.28s0,0,0-.05ZM82.28,25.53a2.21,2.21,0,0,1,0-.72c.22-.77.49-1.52.75-2.27h.09q1.8,0,3.6,0a.29.29,0,0,1,.2.16c.19.45.36.91.55,1.37a1.74,1.74,0,0,1,.16,1.46H98.53a9.1,9.1,0,0,1-.44-.81q-1-2.43-2-4.86L93,12.16a1.84,1.84,0,0,1,0-1.62.27.27,0,0,0,0-.09H78.69a2.19,2.19,0,0,1-.07,1.89c-1.29,3.47-2.57,7-3.87,10.41a13.47,13.47,0,0,1-1.15,2.78ZM71.93,10.45H54.62A1.64,1.64,0,0,1,55.2,12c0,4,0,8.07,0,12.1a1.59,1.59,0,0,1-.51,1.35.23.23,0,0,1,0,0H71.93V20.36a2.53,2.53,0,0,1-1.64.32H64.18v-.86h.29c1.24,0,2.48,0,3.73,0a3.34,3.34,0,0,1,2.08.31V15.47a2.34,2.34,0,0,1-1.54.31H64.18v-1h5.91a2.91,2.91,0,0,1,1.84.32ZM24.83,25.53a1.39,1.39,0,0,1-.55-1v-13a1.09,1.09,0,0,1,.31-.79l.22-.24H14.13a1.55,1.55,0,0,1,.56,1.48q0,6.11,0,12.22a1.59,1.59,0,0,1-.48,1.34.1.1,0,0,1,0,0Z" style="fill:#f2f2f2"/><path d="M84,19.44l.81-2.37.88,2.37Z" style="fill:#f2f2f2"/></g></g></svg>