<svg xmlns="http://www.w3.org/2000/svg" viewBox="0 0 47.06 44.66"><g id="Layer_2" data-name="Layer 2"><g id="Layer_1-2" data-name="Layer 1"><path d="M0,0V44.66H47.06V0ZM10.85,20.52V15.31c0-5.35,2.45-6.49,5.22-6.49s5.15.83,5.29,4.35v2.38H18.3V14c-.09-1.79-.58-2.2-2.23-2.28-2.41,0-2.07,3.45-2.07,4.94V22c0,2.51,0,4.33,2.07,4.33,1.2,0,2.21-.34,2.21-2.22V20.54H16.17V17.72h5.09V29.15H18.32V28a4.59,4.59,0,0,1-3,1.46c-5,0-4.41-3.27-4.46-8.89ZM36.57,35.78H10.76V30.37H36.57v5.41Zm0-6.65h-3V15.91L31,29.13h-2.4L26,16V29.13h-3V9.29h4.14l2.6,13.17L32.42,9.29h4.15Z" style="fill:#f2f2f2;fill-rule:evenodd"/></g></g></svg>