<svg xmlns="http://www.w3.org/2000/svg" viewBox="0 0 55.2 55.2"><g id="Layer_2" data-name="Layer 2"><g id="Layer_1-2" data-name="Layer 1"><path d="M12.61,5.14a27.09,27.09,0,1,0,37.58,7.43l0-.06A27,27,0,0,0,12.71,5.07Z" style="fill:#f2f2f2"/><path d="M27.59,0a27.6,27.6,0,1,0,22.9,12.18A27.28,27.28,0,0,0,27.59,0Z" style="fill:#f2f2f2"/><path d="M52.51,22.8h-.23c-8.38-.12-7.93-2-2-6.37h.11A28.36,28.36,0,0,0,48.6,13.3a25.48,25.48,0,0,0-3.47-4.14L45,9.28c-6.82,4.91-7.6,2.9-5.36-4V5.14a26,26,0,0,0-8.61-2.79v.11c-2.68,7.93-4.36,6.82-6.7-.11V2.24a25.57,25.57,0,0,0-8.94,3,.11.11,0,0,0,.11.11h0c2.68,7.94.67,8.16-5.36,3.92H10A24,24,0,0,0,4.68,17h0a.1.1,0,0,1,.11.1h0c6.93,4.8,5.37,6.14-1.9,6.37H2.78a25.1,25.1,0,0,0,4,17.65,25.39,25.39,0,0,0,8.61,7.94L19.21,40a17.57,17.57,0,0,1-4.36-4.24A15.57,15.57,0,1,1,40.66,18.33a15,15,0,0,1,2.57,7.59H53c-.11-.89-.22-2-.44-3.13Z" style="fill:#3b4049"/><path d="M29,34H25.8l-.67,1.79h3.24A1.62,1.62,0,0,0,29.82,35C30.05,34.42,29.71,34,29,34Z" style="fill:none"/><path d="M30.05,31.18H26.92l-.67,1.67h3.24a1.38,1.38,0,0,0,1.12-.78C30.83,31.51,30.61,31.18,30.05,31.18Z" style="fill:none"/><path d="M30.83,29.61H25.69a.11.11,0,0,0-.11.11h0l-2.91,7.49h0a.11.11,0,0,0,.11.11H28a3.92,3.92,0,0,0,3.69-2.23,1.37,1.37,0,0,0-.45-1.79,2.79,2.79,0,0,0,1.34-1.45,1.39,1.39,0,0,0,0-1.34A1.9,1.9,0,0,0,30.83,29.61Zm-1,5.25c-.22.56-.67.78-1.45.78H25.13l.67-1.78H29C29.71,34,30.05,34.42,29.82,34.86Zm.78-2.79a1.35,1.35,0,0,1-1.11.78H26.25l.67-1.67h3.13C30.6,31.18,30.83,31.51,30.6,32.07Z" style="fill:#3b4049"/><path d="M49.6,31.29h-3L45.91,33h3a1.25,1.25,0,0,0,1.23-.78C50.38,31.51,50.16,31.29,49.6,31.29Z" style="fill:none"/><path d="M50.27,29.61h-5a.11.11,0,0,0-.11.11h0l-2.9,7.49h0a.1.1,0,0,0,.1.11H44c.11,0,.11,0,.11-.11h0l1.12-2.79h3.13c1.9,0,3.13-.67,3.69-2.24S52,29.61,50.27,29.61Zm-.11,2.46a1.38,1.38,0,0,1-1.23.78h-3l.67-1.67h3C50.16,31.29,50.38,31.51,50.16,32.07Z" style="fill:#3b4049"/><path d="M40.1,31.29h-3l-.67,1.56h3a1.25,1.25,0,0,0,1.23-.78C40.88,31.51,40.66,31.29,40.1,31.29Z" style="fill:none"/><path d="M40.77,29.61h-5a.11.11,0,0,0-.11.11h0l-2.9,7.49h0a.1.1,0,0,0,.1.11h1.8a.11.11,0,0,0,.11-.11h0l1.12-2.91h1.9l.89,2.91.11.11h2a.11.11,0,0,0,.11-.11h0l-1-2.91a3.16,3.16,0,0,0,2.79-2.12C43.12,30.84,42.67,29.61,40.77,29.61Zm-.11,2.46a1.37,1.37,0,0,1-1.23.78h-3l.67-1.56h3C40.66,31.29,40.88,31.51,40.66,32.07Z" style="fill:#3b4049"/></g></g></svg>