<svg xmlns="http://www.w3.org/2000/svg" viewBox="0 0 44.68 44.68"><g id="Layer_2" data-name="Layer 2"><g id="Layer_1-2" data-name="Layer 1"><path d="M0,22.34V44.68H44.68V0H0ZM13,9.65c.82.15,1.25.23,1.5.3a9.83,9.83,0,0,1,1,.31.79.79,0,0,0,.23.07.7.7,0,0,1,.23.06l.6.25a14.08,14.08,0,0,1,1.71.88l.24.15s.87.61,1.06.75,2.08,2.06,2.42,2.42c1,1,2.12,2.47,3.46,4.26l.2.27s.59.77,1.23,1.61,1.18,1.54,1.22,1.55a29.46,29.46,0,0,0,.07-4.28,34.08,34.08,0,0,1,.07-4.35,5,5,0,0,1,1.2,0h1.13l0,8.68c0,4.78,0,8.69,0,8.71a.29.29,0,0,1-.17-.07c-.17-.11-1.49-1.43-1.85-1.85l-.34-.4a4.12,4.12,0,0,1-.28-.32l-.22-.28s-.52-.64-.81-1a2.74,2.74,0,0,0-.2-.26c-.08-.09-.31-.41-1.13-1.54l-1-1.34c-.53-.74-3-4-3.13-4.19l-.21-.28-1.87-2.43c-2.35-3-3-3.68-4.57-4.85A11,11,0,0,0,12.36,11l-.74-.28a3.69,3.69,0,0,0-.39-.1,1.47,1.47,0,0,1-.3-.1.92.92,0,0,0-.25,0,1,1,0,0,1-.29-.05,2.73,2.73,0,0,0-.56-.1,7.82,7.82,0,0,0-2-.09c-1,.11-1.25.11-1.23,0a4.4,4.4,0,0,1,1.48-.47,9.16,9.16,0,0,1,1.52-.23A25.79,25.79,0,0,1,13,9.65Zm2,4.69c.43.43.9.92,1,1.09l.34.4a3.44,3.44,0,0,1,.27.33c.11.13.21.26.23.27l.81,1,.22.29.29.39.56.77c.19.26.45.62.57.8s.38.53.57.79l.47.65c.22.3,2.68,3.6,2.71,3.62a1.6,1.6,0,0,1,.19.25l.58.75.59.77a33.53,33.53,0,0,0,4.38,5.07c.34.29,1.53,1.2,1.58,1.2l.32.2a9.93,9.93,0,0,0,1.33.71l.36.13.43.15.29.1a11.24,11.24,0,0,0,4.44.36c.31,0,.47,0,.38.08a4.74,4.74,0,0,1-.84.27,8.55,8.55,0,0,1-1.07.24l-.57.09a21.94,21.94,0,0,1-3.8,0,16.34,16.34,0,0,1-2.57-.61.79.79,0,0,0-.23-.07.79.79,0,0,1-.26-.08l-.69-.29c-.19-.08-1.16-.56-1.29-.64l-.31-.2-.23-.13s-.88-.61-1.06-.76-2.08-2-2.42-2.42c-.94-1-2.11-2.46-3.46-4.26l-.21-.26-1.22-1.62a13.74,13.74,0,0,0-1.23-1.53c-.08,0-.08.34-.09,4.27,0,2.35,0,4.3,0,4.33a10.24,10.24,0,0,1-2.35,0c0-.05-.06-2.05-.06-8.71,0-4.75,0-8.66,0-8.67s.26.1,1,.85Z" style="fill:#f2f2f2"/></g></g></svg>