<svg xmlns="http://www.w3.org/2000/svg" viewBox="0 0 145.54 11.82"><g id="Layer_2" data-name="Layer 2"><g id="Layer_1-2" data-name="Layer 1"><path d="M8.9,9.39a4,4,0,0,1-.74,1.06,3.34,3.34,0,0,1-1,.74,2.83,2.83,0,0,1-1.28.29,4,4,0,0,1-1.51-.26,2.14,2.14,0,0,1-1-.87,4.75,4.75,0,0,1-.59-1.7A15,15,0,0,1,2.56,6.1c0-.79,0-1.51.09-2.18a5.67,5.67,0,0,1,.43-1.79A2.6,2.6,0,0,1,4.08,1,3.24,3.24,0,0,1,5.88.53,3,3,0,0,1,7.3.84a2.91,2.91,0,0,1,1,.78,4.31,4.31,0,0,1,.63,1c.17.38.3.74.42,1.09h.2V.44H9.25a.35.35,0,0,1-.16.27.67.67,0,0,1-.32.06,1.57,1.57,0,0,1-.51-.1C8.06.61,7.84.54,7.59.48l-.8-.2A4.45,4.45,0,0,0,5.86.19a5.58,5.58,0,0,0-2,.41A6.16,6.16,0,0,0,1.93,1.79,6.29,6.29,0,0,0,.54,3.64,5.3,5.3,0,0,0,0,6.05,5.26,5.26,0,0,0,.49,8.32a5.83,5.83,0,0,0,1.29,1.83,6.11,6.11,0,0,0,1.87,1.22,5.67,5.67,0,0,0,2.21.45,4.89,4.89,0,0,0,1-.09c.3-.06.58-.12.84-.19l.68-.18a1.77,1.77,0,0,1,.49-.09.74.74,0,0,1,.33.07.6.6,0,0,1,.18.26h.25V8.15H9.34A5.1,5.1,0,0,1,8.9,9.39Z" style="fill:#f2f2f2"/><path d="M61.57,2.51a5,5,0,0,0-1.22-1A7.64,7.64,0,0,0,58.89.82,9.56,9.56,0,0,0,57.34.48,13.06,13.06,0,0,0,55.85.39c-.54,0-1.07,0-1.6,0l-1.6,0H51.21V.86h1.44V11.18H51.21v.42h1.44c.6,0,1.19,0,1.78,0H56.2a10.49,10.49,0,0,0,1.33-.09A8.68,8.68,0,0,0,59,11.2a7.7,7.7,0,0,0,1.4-.65,4.91,4.91,0,0,0,1.2-1A4.84,4.84,0,0,0,62.42,8a6.15,6.15,0,0,0,.31-2,6.13,6.13,0,0,0-.31-2A4.92,4.92,0,0,0,61.57,2.51Zm-1.5,4.75a6.73,6.73,0,0,1-.19,1.15,4.49,4.49,0,0,1-.43,1.1,3.21,3.21,0,0,1-.76.93,3.75,3.75,0,0,1-1.19.64,5.38,5.38,0,0,1-1.71.24c-.25,0-.52,0-.82-.05V.77a1.58,1.58,0,0,1,.41,0h.55a5.26,5.26,0,0,1,2.16.38,3,3,0,0,1,1.27,1.1A4.44,4.44,0,0,1,60,3.92a15.33,15.33,0,0,1,.15,2.25A10.53,10.53,0,0,1,60.07,7.26Z" style="fill:#f2f2f2"/><path d="M90.53,7.65h1.61V8.1c0,.48,0,.93-.06,1.33a3,3,0,0,1-.29,1.06,1.78,1.78,0,0,1-.65.71,2.23,2.23,0,0,1-1.15.26,4.08,4.08,0,0,1-1.51-.26,2.31,2.31,0,0,1-1-.86,4.24,4.24,0,0,1-.59-1.56,12.53,12.53,0,0,1-.19-2.4V5.28a14.1,14.1,0,0,1,.11-1.73A4.23,4.23,0,0,1,87.25,2a2.78,2.78,0,0,1,1-1.09A3.23,3.23,0,0,1,90,.53a2.82,2.82,0,0,1,2.18.84A5.4,5.4,0,0,1,93.4,3.76h.23V.44h-.27A.61.61,0,0,1,93.2.7a.56.56,0,0,1-.32.07,1.57,1.57,0,0,1-.5-.1L91.7.48c-.25-.07-.52-.14-.81-.2A4.53,4.53,0,0,0,90,.19a5.67,5.67,0,0,0-2,.41,6.21,6.21,0,0,0-3.27,3,5.3,5.3,0,0,0-.54,2.41,5.45,5.45,0,0,0,.48,2.28,6.1,6.1,0,0,0,1.3,1.82,5.77,5.77,0,0,0,1.87,1.22,5.64,5.64,0,0,0,2.21.45,4.4,4.4,0,0,0,1.23-.15,8.38,8.38,0,0,0,.9-.32l.73-.32a1.74,1.74,0,0,1,.71-.15.74.74,0,0,1,.34.08.39.39,0,0,1,.18.28h.29V7.65h1V7.09H90.53v.56Z" style="fill:#f2f2f2"/><path d="M107.5,1.75A5.84,5.84,0,0,0,105.62.6a6,6,0,0,0-2.14-.42,5.78,5.78,0,0,0-2.06.42,6.28,6.28,0,0,0-1.89,1.19,6.47,6.47,0,0,0-1.39,1.85,5.3,5.3,0,0,0-.54,2.41,5.26,5.26,0,0,0,.49,2.27,5.83,5.83,0,0,0,1.29,1.83,6.36,6.36,0,0,0,1.87,1.22,5.72,5.72,0,0,0,4.47,0,6.24,6.24,0,0,0,1.86-1.26,6.33,6.33,0,0,0,1.29-1.86A5.52,5.52,0,0,0,109.34,6a5.72,5.72,0,0,0-.5-2.42A6,6,0,0,0,107.5,1.75Zm-.86,6.38a5.62,5.62,0,0,1-.41,1.77,2.65,2.65,0,0,1-1,1.17,3.26,3.26,0,0,1-1.78.42,3.85,3.85,0,0,1-1.48-.25,2.13,2.13,0,0,1-1-.87,4.59,4.59,0,0,1-.57-1.67,15.07,15.07,0,0,1-.18-2.65,21.9,21.9,0,0,1,.1-2.23,5.4,5.4,0,0,1,.45-1.75,2.55,2.55,0,0,1,1-1.14,3.19,3.19,0,0,1,1.72-.41,3.25,3.25,0,0,1,1.81.44,2.69,2.69,0,0,1,1,1.18,5.44,5.44,0,0,1,.39,1.72c0,.65.07,1.34.07,2.05S106.69,7.45,106.64,8.13Z" style="fill:#f2f2f2"/><path d="M121.53,1.75A5.84,5.84,0,0,0,119.65.6a6,6,0,0,0-2.14-.42,5.78,5.78,0,0,0-2.06.42,6,6,0,0,0-1.89,1.19,6.29,6.29,0,0,0-1.39,1.85,5.3,5.3,0,0,0-.54,2.41,5.26,5.26,0,0,0,.49,2.27,5.83,5.83,0,0,0,1.29,1.83,6.23,6.23,0,0,0,1.87,1.22,5.7,5.7,0,0,0,2.23.45,5.63,5.63,0,0,0,2.23-.46,6.05,6.05,0,0,0,3.15-3.12A5.37,5.37,0,0,0,123.37,6a5.58,5.58,0,0,0-.51-2.42A6,6,0,0,0,121.53,1.75Zm-.86,6.38a5.62,5.62,0,0,1-.41,1.77,2.72,2.72,0,0,1-1,1.17,3.23,3.23,0,0,1-1.78.42,4,4,0,0,1-1.49-.25,2,2,0,0,1-1-.87,4.4,4.4,0,0,1-.58-1.67,14.94,14.94,0,0,1-.19-2.65,21.75,21.75,0,0,1,.11-2.23,5.4,5.4,0,0,1,.45-1.75,2.55,2.55,0,0,1,1-1.14,3.19,3.19,0,0,1,1.72-.41,3.25,3.25,0,0,1,1.81.44,2.69,2.69,0,0,1,1,1.18,5.44,5.44,0,0,1,.39,1.72c0,.65.07,1.34.07,2.05S120.72,7.45,120.67,8.13Z" style="fill:#f2f2f2"/><path d="M132.68,5.8a4.07,4.07,0,0,0-1.08-.62c-.4-.16-.81-.31-1.24-.44l-1.23-.4a6.39,6.39,0,0,1-1.08-.44,2.64,2.64,0,0,1-.76-.63,1.38,1.38,0,0,1-.28-.85,1.53,1.53,0,0,1,.17-.64,2,2,0,0,1,.5-.63,2.69,2.69,0,0,1,.8-.45,3.2,3.2,0,0,1,1.11-.17,2.81,2.81,0,0,1,1.27.26,2.46,2.46,0,0,1,.83.7,4.1,4.1,0,0,1,.54,1c.14.36.27.72.4,1.08h.2V.44h-.25a1.16,1.16,0,0,1-.14.26.49.49,0,0,1-.29.07,1,1,0,0,1-.42-.1c-.15-.06-.33-.13-.53-.19a7.05,7.05,0,0,0-.68-.2,4.24,4.24,0,0,0-2.43.18,4.3,4.3,0,0,0-1.2.72,3.51,3.51,0,0,0-.78,1,2.72,2.72,0,0,0-.28,1.21,3.28,3.28,0,0,0,.27,1.41,3,3,0,0,0,.73,1,4,4,0,0,0,1,.62,9.34,9.34,0,0,0,1.19.43l1.19.35a5.4,5.4,0,0,1,1,.42,2.15,2.15,0,0,1,.73.63,1.52,1.52,0,0,1,.27.9,2.48,2.48,0,0,1-.55,1.44,2.23,2.23,0,0,1-.84.64,3.17,3.17,0,0,1-1.36.26H129a2,2,0,0,1-.58-.09,3,3,0,0,1-.65-.28,3.15,3.15,0,0,1-.7-.55,3.28,3.28,0,0,1-.55-.68,5,5,0,0,1-.38-.72,5.22,5.22,0,0,1-.23-.66c-.05-.2-.08-.37-.1-.49h-.24V11.6h.25a.63.63,0,0,1,.17-.29.54.54,0,0,1,.32-.07,2.08,2.08,0,0,1,.48.09l.73.2.9.2a5.12,5.12,0,0,0,1,.09,4.89,4.89,0,0,0,1.76-.3,4.37,4.37,0,0,0,1.37-.83,3.49,3.49,0,0,0,.88-1.21A3.4,3.4,0,0,0,133.72,8a2.8,2.8,0,0,0-.28-1.32A2.91,2.91,0,0,0,132.68,5.8Z" style="fill:#f2f2f2"/><path d="M43.26,0h-.62L38.05,11.18h-1.2v.42h3v-.42H38.5l1.65-4h3.77l1.73,4H44.28v.42h5.27v-.42H48.11ZM40.31,6.77,42,2.68l1.77,4.09Z" style="fill:#f2f2f2"/><path d="M70.2,0h-.61L65,11.18H63.79v.42h3v-.42H65.45l1.65-4h3.77L72,9.69l.65,1.49H71.23v.42H76.5v-.42H75.06ZM67.26,6.77l1.68-4.09,1.77,4.09Z" style="fill:#f2f2f2"/><path d="M17.67,0h-.62L12.46,11.18h-1.2v.42h3v-.42H12.91l1.65-4h3.77l1.73,4H18.69v.42H24v-.42H22.52Zm-3,6.77L16.4,2.68l1.77,4.09Z" style="fill:#f2f2f2"/><polygon points="33.14 0.44 33.14 0.86 34.6 0.86 34.6 7.9 34.57 7.9 29.35 0.44 25.65 0.44 25.64 0.44 25.64 0.86 26.89 0.86 26.89 11.18 25.64 11.18 25.64 11.6 25.65 11.6 25.65 11.6 28.79 11.6 28.79 11.38 28.79 11.18 27.34 11.18 27.34 1.55 27.37 1.55 34.43 11.6 35.05 11.6 35.05 0.86 36.28 0.86 36.28 0.66 36.29 0.66 36.29 0.44 33.16 0.44 33.14 0.44" style="fill:#f2f2f2"/><path d="M145.34,8a5.72,5.72,0,0,1-.46,1.26,4.29,4.29,0,0,1-.74,1,3.42,3.42,0,0,1-1,.68,3.38,3.38,0,0,1-1.3.24h-2.57V5.92h1a1.92,1.92,0,0,1,.91.19,1.73,1.73,0,0,1,.63.51,2.73,2.73,0,0,1,.39.74,8.89,8.89,0,0,1,.26.88h.21V3.17h-.21a6,6,0,0,1-.28,1,2.29,2.29,0,0,1-.44.73,1.68,1.68,0,0,1-.66.48,2.61,2.61,0,0,1-1,.16h-.88V.86h2.49a2.84,2.84,0,0,1,1.3.28,3.08,3.08,0,0,1,.87.69,3.47,3.47,0,0,1,.53.8q.18.42.27.69h.2V.44h-9.38V.86H137V11.18h-1.45v.42h10V8Z" style="fill:#f2f2f2"/></g></g></svg>