<svg xmlns="http://www.w3.org/2000/svg" viewBox="0 0 133.55 44.8"><g id="Layer_2" data-name="Layer 2"><g id="Layer_1-2" data-name="Layer 1"><path d="M66.73,0c-7.45,0-13.5,5.65-13.5,12.61,0,6.11,4.65,11.2,10.83,12.36A3.5,3.5,0,0,1,66.36,26c.9-1.47.79-6.09.79-7.56,0-1.25.79-.84,1.47-.47l2.88,1.52c.16-.78,1.16-.84,1.79-.57l1.2.31-.57-1.21c-.42-.78-.21-1.41.26-1.67l-1-.79c-.79-.53-.31-1,.79-1.47l1.78-.84c-1-.73-.31-1.57.16-2.2l1-1.31-2.26-.06c-1.1-.1-1.36-.47-1.36-1.15L71,10.09c-1,.68-1.73,0-1.62-1.2l.36-2.84a1.32,1.32,0,0,1-2-.89,22.39,22.39,0,0,1-1-2.31,22.39,22.39,0,0,1-1,2.31,1.32,1.32,0,0,1-2,.89l.37,2.84c.1,1.2-.58,1.88-1.63,1.2L60.18,8.57c0,.68-.27,1-1.37,1.15l-2.25.06,1,1.31c.48.63,1.21,1.47.16,2.2l1.78.84c1.11.42,1.58.94.79,1.47l-1,.79c.48.26.69.89.27,1.67L59,19.27,60.18,19c.62-.27,1.62-.21,1.78.57L64.84,18c.68-.37,1.47-.78,1.47.47s.22,4.32-.73,5.2c-6-.54-10.72-5.29-10.72-11.07,0-6.15,5.32-11.13,11.87-11.13s11.87,5,11.87,11.13A11.37,11.37,0,0,1,68.09,23.67l0,1.48c6.81-.64,12.12-6,12.12-12.54C80.23,5.65,74.19,0,66.73,0Zm66.82,44.35a6.81,6.81,0,0,1-.79-1.38l-2.37-6.19a4.34,4.34,0,0,1-.16-1.19h-3.85a3.4,3.4,0,0,1-.16,1.38l-2.63,6.32a4.59,4.59,0,0,1-.69,1.06h2.55l.61-1.7h4v0l.58,1.73Zm-7-3.13,1.54-4.2,1.42,4.2Zm-27-4.44a4,4,0,0,1-.16-1.19H95.53A3.37,3.37,0,0,1,95.38,37l-2.63,6.32a4.67,4.67,0,0,1-.7,1.06h2.56l.61-1.7h4v0l.58,1.72h2.95a6.84,6.84,0,0,1-.8-1.38l-2.36-6.19Zm-3.8,4.44L97.29,37l1.41,4.2ZM67.91,36.78a4.28,4.28,0,0,1-.15-1.19H63.9A3.24,3.24,0,0,1,63.74,37l-2.63,6.32a4.59,4.59,0,0,1-.69,1.06H63l.61-1.7h4l-.48-1.43h-3L65.66,37l2.47,7.33h3a6.4,6.4,0,0,1-.8-1.38l-2.37-6.19Zm-60.42,0a4.34,4.34,0,0,1-.16-1.19H3.48A3.4,3.4,0,0,1,3.32,37L.69,43.29A4.59,4.59,0,0,1,0,44.35H2.55l.61-1.7h4l-.48-1.43H3.69L5.23,37,7.7,44.35h3A6.81,6.81,0,0,1,9.86,43L7.49,36.78Zm11.93-1.19H16.29a3.18,3.18,0,0,1,.24,1.16v6.41a3.55,3.55,0,0,1-.24,1.19h3.13a3.55,3.55,0,0,1-.24-1.19V36.75a3.18,3.18,0,0,1,.24-1.16Zm93.77,0h-4.67a3.18,3.18,0,0,1,.24,1.16v6.41a3.55,3.55,0,0,1-.24,1.19h4.67c3.88,0,4.6-2.68,4.6-4.41S117.07,35.59,113.19,35.59Zm-.77,7.35h-1V37h1c1.12,0,2.63.43,2.63,3S113.54,42.94,112.42,42.94Zm-26-7.35H84.11v4.78l-4.06-4.78H76.83a3.18,3.18,0,0,1,.24,1.16v6.41a3.55,3.55,0,0,1-.24,1.19h2.31V38.51l5,5.84h2.31a3.55,3.55,0,0,1-.24-1.19V36.75a3.18,3.18,0,0,1,.24-1.16Zm-32-.4a8,8,0,0,0-2.1-.24c-2.58,0-5.55,1.78-5.55,5s3,4.81,5.55,4.83a8.48,8.48,0,0,0,2.1-.23,4.94,4.94,0,0,1,1.33-.22V42.17a4.49,4.49,0,0,1-2.74.88c-1.14,0-3.37-.85-3.35-3.08A3.11,3.11,0,0,1,53,36.7a4.78,4.78,0,0,1,2.74.77V35.4A4.14,4.14,0,0,1,54.41,35.19ZM33.69,40.92a3,3,0,0,0,1.83-3,2.57,2.57,0,0,0-2.6-2.36H26.54a3.25,3.25,0,0,1,.24,1.17v6.4a3.49,3.49,0,0,1-.24,1.19h2.9V41.22h1.7l1.67,3.13H36A9.5,9.5,0,0,1,34.91,43l-1.22-2.08Zm-2.5-1.22H29.44V37h2a1.27,1.27,0,0,1,1.38,1.27A1.5,1.5,0,0,1,31.19,39.7Z" style="fill:#f2f2f2"/></g></g></svg>